<svg width="389" height="184" viewBox="0 0 389 184" fill="none" xmlns="http://www.w3.org/2000/svg">
<g clip-path="url(#clip0_2_2)">
<rect width="389" height="184" fill="white"/>
<path d="M86.6875 153.125L86.625 163H31.4375V73.4375H86.625V83.3125H43.5625V113.062H78.4375V122.562H43.5625V153.125H86.6875ZM139.521 114.75C137.437 111.958 135.187 110.021 132.771 108.937C130.354 107.812 127.646 107.25 124.646 107.25C118.771 107.25 114.25 109.354 111.083 113.562C107.916 117.771 106.333 123.771 106.333 131.562C106.333 135.687 106.687 139.229 107.396 142.187C108.104 145.104 109.146 147.521 110.521 149.437C111.896 151.312 113.583 152.687 115.583 153.562C117.583 154.437 119.854 154.875 122.396 154.875C126.062 154.875 129.25 154.042 131.958 152.375C134.708 150.708 137.229 148.354 139.521 145.312V114.75ZM150.646 70.9375V163H144.021C142.437 163 141.437 162.229 141.021 160.687L140.021 153C137.312 156.25 134.229 158.875 130.771 160.875C127.312 162.875 123.312 163.875 118.771 163.875C115.146 163.875 111.854 163.187 108.896 161.812C105.937 160.396 103.416 158.333 101.333 155.625C99.2497 152.917 97.6455 149.542 96.5205 145.5C95.3955 141.458 94.833 136.812 94.833 131.562C94.833 126.896 95.458 122.562 96.708 118.562C97.958 114.521 99.7497 111.021 102.083 108.062C104.416 105.104 107.271 102.792 110.646 101.125C114.062 99.4167 117.896 98.5625 122.146 98.5625C126.021 98.5625 129.333 99.2292 132.083 100.562C134.875 101.854 137.354 103.667 139.521 106V70.9375H150.646ZM220.279 99.6875V163H213.654C212.071 163 211.071 162.229 210.654 160.687L209.779 153.875C207.029 156.917 203.946 159.375 200.529 161.25C197.113 163.083 193.196 164 188.779 164C185.321 164 182.258 163.438 179.592 162.312C176.967 161.146 174.758 159.521 172.967 157.437C171.175 155.354 169.821 152.833 168.904 149.875C168.029 146.917 167.592 143.646 167.592 140.062V99.6875H178.717V140.062C178.717 144.854 179.8 148.562 181.967 151.187C184.175 153.812 187.529 155.125 192.029 155.125C195.321 155.125 198.383 154.354 201.217 152.812C204.092 151.229 206.738 149.062 209.154 146.312V99.6875H220.279ZM248.419 108.875C249.794 107.333 251.252 105.937 252.794 104.687C254.336 103.437 255.961 102.375 257.669 101.5C259.419 100.583 261.252 99.8958 263.169 99.4375C265.127 98.9375 267.231 98.6875 269.481 98.6875C272.94 98.6875 275.981 99.2708 278.606 100.437C281.273 101.562 283.481 103.187 285.231 105.312C287.023 107.396 288.377 109.917 289.294 112.875C290.211 115.833 290.669 119.104 290.669 122.687V163H279.481V122.687C279.481 117.896 278.377 114.187 276.169 111.562C274.002 108.896 270.69 107.562 266.231 107.562C262.94 107.562 259.856 108.354 256.981 109.937C254.148 111.521 251.523 113.667 249.106 116.375V163H237.919V99.6875H244.606C246.19 99.6875 247.169 100.458 247.544 102L248.419 108.875ZM334.309 98.6875C338.934 98.6875 343.1 99.4583 346.809 101C350.517 102.542 353.684 104.729 356.309 107.562C358.934 110.396 360.934 113.833 362.309 117.875C363.725 121.875 364.434 126.354 364.434 131.312C364.434 136.312 363.725 140.812 362.309 144.812C360.934 148.812 358.934 152.229 356.309 155.062C353.684 157.896 350.517 160.083 346.809 161.625C343.1 163.125 338.934 163.875 334.309 163.875C329.642 163.875 325.434 163.125 321.684 161.625C317.975 160.083 314.809 157.896 312.184 155.062C309.559 152.229 307.538 148.812 306.121 144.812C304.746 140.812 304.059 136.312 304.059 131.312C304.059 126.354 304.746 121.875 306.121 117.875C307.538 113.833 309.559 110.396 312.184 107.562C314.809 104.729 317.975 102.542 321.684 101C325.434 99.4583 329.642 98.6875 334.309 98.6875ZM334.309 155.188C340.559 155.188 345.225 153.104 348.309 148.937C351.392 144.729 352.934 138.875 352.934 131.375C352.934 123.833 351.392 117.958 348.309 113.75C345.225 109.542 340.559 107.437 334.309 107.437C331.142 107.437 328.371 107.979 325.996 109.062C323.663 110.146 321.704 111.708 320.121 113.75C318.579 115.792 317.413 118.312 316.621 121.312C315.871 124.271 315.496 127.625 315.496 131.375C315.496 138.875 317.038 144.729 320.121 148.937C323.246 153.104 327.975 155.188 334.309 155.188Z" fill="#141414"/>
<path d="M37.25 54.125L54 13.75H67.5L84.25 54.125H71.5L60.75 23.75L49.875 54.125H37.25Z" fill="#1499D2"/>
</g>
<defs>
<clipPath id="clip0_2_2">
<rect width="389" height="184" fill="white"/>
</clipPath>
</defs>
</svg>
